<?xml version="1.0" standalone="no"?>
<!DOCTYPE svg PUBLIC "-//W3C//DTD SVG 20010904//EN"
 "http://www.w3.org/TR/2001/REC-SVG-20010904/DTD/svg10.dtd">
<svg version="1.0" xmlns="http://www.w3.org/2000/svg"
 width="238.000000pt" height="238.000000pt" viewBox="0 0 238.000000 238.000000"
 preserveAspectRatio="xMidYMid meet">
<metadata>
Created by potrace 1.11, written by Peter Selinger 2001-2013
</metadata>
<g transform="translate(0.000000,238.000000) scale(0.100000,-0.100000)"
fill="#000000" stroke="none">
<path d="M269 1471 c-47 -48 -41 -70 74 -247 154 -237 288 -436 310 -461 25
-28 86 -31 115 -5 18 15 380 562 412 621 8 17 8 30 0 57 -20 59 -41 66 -189
62 -126 -3 -131 -4 -157 -30 -21 -21 -28 -39 -32 -82 l-4 -56 44 0 c92 0 90
-30 -17 -191 -112 -171 -108 -171 -220 0 -107 161 -109 191 -17 191 l44 0 -4
57 c-4 48 -10 61 -37 85 -31 28 -33 28 -162 28 l-131 0 -29 -29z"/>
<path d="M1575 1486 c-162 -51 -272 -182 -283 -336 -6 -88 11 -156 58 -229
120 -186 380 -236 570 -109 109 73 170 190 170 329 l0 69 -196 0 c-121 0 -203
-4 -216 -11 -11 -6 -26 -26 -34 -45 -12 -29 -12 -39 0 -68 20 -47 41 -56 141
-56 83 0 85 -1 75 -20 -6 -11 -29 -33 -52 -48 -36 -23 -51 -27 -118 -27 -67 0
-82 4 -118 28 -112 73 -109 248 5 319 34 21 53 24 198 28 135 5 167 9 200 26
50 26 94 81 102 127 l6 37 -234 -1 c-160 0 -247 -4 -274 -13z"/>
</g>
</svg>
